<?xml version="1.0" encoding="UTF-8" standalone="no"?>
<svg
   width="24"
   height="24"
   viewBox="0 0 24 24"
   version="1.1"
   id="svg4"
   sodipodi:docname="ic_help.svg"
   inkscape:version="1.1 (c4e8f9ed74, 2021-05-24)"
   xmlns:inkscape="http://www.inkscape.org/namespaces/inkscape"
   xmlns:sodipodi="http://sodipodi.sourceforge.net/DTD/sodipodi-0.dtd"
   xmlns="http://www.w3.org/2000/svg"
   xmlns:svg="http://www.w3.org/2000/svg">
  <defs
     id="defs8" />
  <sodipodi:namedview
     id="namedview6"
     pagecolor="#ffffff"
     bordercolor="#666666"
     borderopacity="1.0"
     inkscape:pageshadow="2"
     inkscape:pageopacity="0.0"
     inkscape:pagecheckerboard="0"
     showgrid="false"
     inkscape:zoom="21.666667"
     inkscape:cx="17.307692"
     inkscape:cy="12.046154"
     inkscape:window-width="1920"
     inkscape:window-height="1016"
     inkscape:window-x="0"
     inkscape:window-y="27"
     inkscape:window-maximized="1"
     inkscape:current-layer="svg4" />
  <path
     d="m 10.999994,18.000001 h 2.000012 V 16 H 10.999994 Z M 12.000019,1.9999995 c -5.52,0 -10.000025,4.480002 -10.000025,10.0000015 0,5.52 4.480025,9.999999 10.000025,9.999999 5.52,0 9.999987,-4.479999 9.999987,-9.999999 0,-5.5199995 -4.479987,-10.0000015 -9.999987,-10.0000015 z m 0,17.9999985 c -4.410028,0 -8.000012,-3.589999 -8.000012,-7.999997 0,-4.4100015 3.589984,-8.0000005 8.000012,-8.0000005 4.409991,0 7.999975,3.589999 7.999975,8.0000005 0,4.409998 -3.589984,7.999997 -7.999975,7.999997 z m 0,-13.9999965 C 9.790016,6.0000015 7.999994,7.7900005 7.999994,10 h 2.000012 c 0,-1.1000005 0.899982,-2.0000005 2.000013,-2.0000005 1.099994,0 1.999975,0.9 1.999975,2.0000005 0,2.000001 -3,1.75 -3,5.000001 h 2.000012 c 0,-2.250002 3,-2.500002 3,-5.000001 0,-2.2099995 -1.790022,-3.9999985 -3.999987,-3.9999985 z"
     id="path288059"
     style="display:inline;fill:#fffffe;fill-opacity:1;stroke-width:0.999999" />
</svg>
